<?xml version="1.0" encoding="UTF-8" standalone="no"?>
<svg
   width="1706.88"
   height="1706.88"
   viewBox="0 0 5334.0004 5334.0004"
   version="1.1"
   id="svg3"
   sodipodi:docname="gradle.svg"
   inkscape:version="1.2.1 (9c6d41e410, 2022-07-14)"
   xml:space="preserve"
   xmlns:inkscape="http://www.inkscape.org/namespaces/inkscape"
   xmlns:sodipodi="http://sodipodi.sourceforge.net/DTD/sodipodi-0.dtd"
   xmlns:xlink="http://www.w3.org/1999/xlink"
   xmlns="http://www.w3.org/2000/svg"
   xmlns:svg="http://www.w3.org/2000/svg"
   xmlns:rdf="http://www.w3.org/1999/02/22-rdf-syntax-ns#"
   xmlns:cc="http://creativecommons.org/ns#"
   xmlns:dc="http://purl.org/dc/elements/1.1/"><metadata
     id="metadata9"><rdf:RDF><cc:Work
         rdf:about=""><dc:format>image/svg+xml</dc:format><dc:type
           rdf:resource="http://purl.org/dc/dcmitype/StillImage" /></cc:Work></rdf:RDF></metadata><defs
     id="defs7"><linearGradient
       inkscape:collect="always"
       id="linearGradient4608"><stop
         style="stop-color:#faba34;stop-opacity:1"
         offset="0"
         id="stop4604" /><stop
         style="stop-color:#ff5a24;stop-opacity:1"
         offset="1"
         id="stop4606" /></linearGradient><linearGradient
       inkscape:collect="always"
       xlink:href="#linearGradient4608"
       id="linearGradient4582"
       gradientUnits="userSpaceOnUse"
       gradientTransform="translate(2.421875e-5,-1.9926269e-4)"
       x1="512.50006"
       y1="492.00009"
       x2="4884.0005"
       y2="4817.0005" /></defs><sodipodi:namedview
     pagecolor="#ffffff"
     bordercolor="#666666"
     borderopacity="1"
     objecttolerance="10"
     gridtolerance="10"
     guidetolerance="10"
     inkscape:pageopacity="0"
     inkscape:pageshadow="2"
     inkscape:window-width="2560"
     inkscape:window-height="1369"
     id="namedview5"
     showgrid="false"
     inkscape:zoom="0.088388348"
     inkscape:cx="-2138.2909"
     inkscape:cy="2081.7224"
     inkscape:window-x="1432"
     inkscape:window-y="626"
     inkscape:window-maximized="1"
     inkscape:current-layer="svg3"
     inkscape:pagecheckerboard="true"
     units="px"
     inkscape:showpageshadow="0"
     inkscape:deskcolor="#d1d1d1" /><rect
     inkscape:label="orange"
     y="-8.8281246e-05"
     x="0"
     height="5334.0005"
     width="5334.0005"
     id="rect4578"
     style="opacity:1;fill:url(#linearGradient4582);fill-opacity:1.0;fill-rule:nonzero;stroke:none;stroke-width:78.98833466;stroke-linecap:butt;stroke-linejoin:round;stroke-miterlimit:4;stroke-dasharray:none;stroke-opacity:1;paint-order:normal" /><path
     d="m 4072.9962,1132.2134 c -171.8655,-2.9596 -338.1621,60.948 -463.8136,178.2432 -12.5271,11.8195 -19.8248,28.1458 -20.2772,45.3628 0.06,17.1646 6.7902,33.6335 18.7677,45.9283 l 82.6133,85.4428 c 22.2681,22.1299 57.3977,24.5789 82.5209,5.7526 65.5175,-49.4108 145.4118,-76.0096 227.4721,-75.7313 153.9587,-0.675 293.0712,91.7268 352.1447,233.903 59.0735,142.1761 26.4022,305.9532 -82.7029,414.5801 -526.32,526.3199 -1228.9331,-948.3415 -2823.3442,-189.7502 -114.6757,53.6191 -159.2133,193.6705 -96.5724,303.6778 l 273.3093,472.7694 c 59.339,102.3488 189.7726,138.2308 293.112,80.6341 l 6.791,-3.8676 -5.3772,3.8676 121.19,-68.0936 c 135.0794,-83.8769 262.708,-179.1967 381.4797,-284.9088 25.1454,-21.5801 62.2765,-21.5801 87.4219,0 14.8463,11.6393 23.5639,29.4216 23.6719,48.2862 0.3503,18.3304 -7.2096,35.9239 -20.7483,48.2862 -125.0941,111.0336 -259.6858,210.8812 -402.2281,298.395 h -3.8676 l -121.1885,67.6208 c -51.235,29.0402 -109.1685,44.1897 -168.0608,43.9474 -123.7755,0.017 -238.2786,-65.5994 -300.847,-172.3964 l -258.312,-446.647 c -496.38237,350.5581 -797.68849,1026.0816 -635.92882,1883.1628 5.91616,29.5139 31.67337,50.8655 61.77237,51.2066 H 976.5204 c 31.7064,0.02 58.4498,-23.6072 62.3379,-55.0742 27.2423,-215.5204 210.5566,-377.122 427.792,-377.122 217.2354,0 400.5497,161.6016 427.792,377.122 4.1133,31.5383 31.0052,55.1179 62.8106,55.0742 h 286.7955 c 31.7062,0.02 58.4496,-23.6072 62.3379,-55.0742 28.03,-215.0193 211.2185,-375.877 428.057,-375.877 216.8385,0 400.027,160.8577 428.057,375.877 3.884,31.4326 30.5752,55.0482 62.2468,55.0742 h 283.4934 c 34.2934,-0.028 62.2171,-27.5737 62.7134,-61.8636 6.76,-399.3278 114.4622,-857.9975 421.5625,-1087.8398 1063.7466,-795.7571 784.218,-1478.0421 537.9581,-1725.7512 -121.5494,-121.6014 -285.5858,-191.2261 -457.4939,-194.1817 z m -645.4424,1181.8057 c 39.5912,19.9801 65.9534,59.1005 69.609,103.2968 3.6555,44.1963 -15.9209,87.1163 -51.6913,113.3298 v -0.4791 l -202.7636,-101.8553 c -0.1626,-44.3352 22.7222,-85.5706 60.4305,-108.8883 37.7083,-23.3177 84.8237,-25.3682 124.4154,-5.4149 z"
     fill="#02303a"
     id="path325"
     style="stroke-width:48.2862;fill:#ffffff;fill-opacity:1"
     sodipodi:nodetypes="cccccccsccccccccccccccccccccccsccccscccccccccscccscc" /></svg>
